<svg width="22" height="20" viewBox="0 0 22 20" fill="none" xmlns="http://www.w3.org/2000/svg" xmlns:xlink="http://www.w3.org/1999/xlink">
<path d="M10.092,-0.041C11.696,-0.041 13.301,-0.056 14.904,-0.032C15.443,-0.025 15.979,0.039 16.505,0.158C18.441,0.606 19.692,2.036 19.939,4.048C19.993,4.485 20.02,4.924 20.021,5.364C20.027,8.43 20.046,11.497 20.007,14.563C20.002,15.321 19.881,16.073 19.649,16.794C19.042,18.618 17.674,19.59 15.827,19.693C13.533,19.823 11.229,19.811 8.929,19.818C7.405,19.818 5.873,19.818 4.358,19.703C2.039,19.532 0.481,17.937 0.215,15.579C0.168,15.169 0.144,14.756 0.142,14.344C0.136,11.263 0.117,8.183 0.156,5.104C0.166,4.373 0.287,3.648 0.515,2.954C1.126,1.127 2.494,0.19 4.338,0.049C5.935,-0.073 7.542,-0.045 9.145,-0.08C9.461,-0.087 9.778,-0.08 10.094,-0.08L10.092,-0.041ZM10.057,16.375C11.752,16.386 13.382,15.715 14.589,14.508C15.796,13.302 16.482,11.659 16.494,9.941C16.516,8.222 15.863,6.566 14.681,5.334C13.498,4.103 11.882,3.398 10.186,3.373C9.341,3.357 8.5,3.511 7.713,3.827C6.927,4.142 6.21,4.613 5.604,5.211C4.998,5.809 4.515,6.524 4.183,7.313C3.851,8.102 3.677,8.95 3.671,9.807C3.66,10.665 3.817,11.516 4.133,12.312C4.449,13.108 4.917,13.832 5.511,14.443C6.105,15.054 6.813,15.539 7.593,15.871C8.373,16.202 9.211,16.374 10.057,16.375ZM16.555,4.699C16.892,4.695 17.214,4.555 17.45,4.31C17.686,4.065 17.817,3.736 17.813,3.393C17.809,3.051 17.672,2.724 17.431,2.484C17.19,2.243 16.865,2.109 16.527,2.111C16.357,2.111 16.188,2.146 16.031,2.213C15.874,2.28 15.731,2.378 15.612,2.502C15.494,2.626 15.4,2.773 15.338,2.934C15.276,3.095 15.246,3.266 15.251,3.439C15.254,3.609 15.29,3.777 15.357,3.932C15.424,4.088 15.521,4.228 15.643,4.346C15.764,4.463 15.907,4.554 16.064,4.615C16.22,4.676 16.387,4.704 16.555,4.699Z" fill="#2F383B"/>
<path d="M10.136,5.682C10.68,5.688 11.217,5.802 11.718,6.019C12.218,6.236 12.67,6.552 13.05,6.947C13.429,7.342 13.728,7.81 13.928,8.323C14.128,8.835 14.226,9.383 14.217,9.934C14.167,12.276 12.304,14.115 10.026,14.069C7.723,14.023 5.897,12.122 5.946,9.82C5.952,9.269 6.066,8.725 6.28,8.218C6.493,7.712 6.804,7.253 7.193,6.869C7.583,6.484 8.043,6.182 8.548,5.978C9.053,5.774 9.593,5.674 10.136,5.682Z" fill="#2F383B"/>
</svg>
