<svg width="40" height="40" viewBox="0 0 40 40" fill="none" xmlns="http://www.w3.org/2000/svg" xmlns:xlink="http://www.w3.org/1999/xlink">
<path d="M0.548,21.135L0.548,18.636C0.572,18.51 0.598,18.384 0.617,18.258C0.761,17.307 0.833,16.341 1.058,15.411C2.553,9.232 6.133,4.7 11.748,1.877C15.467,0.008 19.428,-0.532 23.515,0.172C28.633,1.049 32.807,3.613 35.953,7.792C39.24,12.167 40.514,17.135 39.815,22.584C39.324,26.523 37.645,30.213 35.008,33.149C32.078,36.535 28.09,38.799 23.71,39.562C22.982,39.697 22.243,39.773 21.508,39.874L19.042,39.874C18.561,39.813 18.078,39.762 17.599,39.699C13.746,39.176 10.137,37.493 7.239,34.868C3.87,31.895 1.616,27.836 0.856,23.375C0.724,22.629 0.65,21.879 0.548,21.135ZM20.248,28.969C23.593,28.969 26.944,28.969 30.301,28.969C31.968,28.969 32.987,27.932 32.988,26.245L32.988,13.523C32.988,11.836 31.968,10.803 30.298,10.803L10.269,10.803C8.577,10.803 7.563,11.832 7.563,13.546C7.563,17.754 7.592,21.975 7.547,26.189C7.53,27.724 8.599,29.011 10.316,28.984C13.622,28.932 16.936,28.969 20.248,28.969Z" fill="#FFFFFF"/>
<path d="M20.248,28.969C16.936,28.969 13.623,28.932 10.311,28.985C8.599,29.011 7.53,27.724 7.542,26.189C7.587,21.981 7.556,17.76 7.558,13.546C7.558,11.833 8.572,10.803 10.264,10.803L30.293,10.803C31.963,10.803 32.982,11.836 32.983,13.523L32.983,26.246C32.983,27.933 31.963,28.967 30.296,28.969C26.949,28.971 23.599,28.971 20.248,28.969ZM9.605,13.916L9.605,26.151C9.605,26.823 9.696,26.914 10.364,26.914L30.163,26.914C30.855,26.914 30.945,26.83 30.945,26.135L30.945,13.916C30.699,14.111 30.532,14.244 30.365,14.379L21.046,21.876C20.49,22.323 20.065,22.323 19.52,21.886L13.067,16.694L9.605,13.916ZM28.941,12.888L11.707,12.888C11.717,13.002 11.787,13.034 11.844,13.081C14.571,15.271 17.294,17.464 20.014,19.661C20.241,19.845 20.361,19.794 20.566,19.634C22.683,17.923 24.804,16.215 26.927,14.512L28.941,12.888Z" fill="#FFFFFF"/>
<path d="M9.605,13.916L13.065,16.795L19.518,22.168C20.063,22.62 20.489,22.619 21.044,22.156C24.152,19.572 27.258,16.987 30.364,14.401L30.943,13.923L30.943,26.549C30.943,27.268 30.857,27.353 30.161,27.353C23.562,27.353 16.962,27.353 10.363,27.353C9.695,27.353 9.603,27.261 9.603,26.564L9.603,13.916L9.605,13.916Z" fill="#000000"/>
<path d="M28.941,12.885L26.927,14.509C24.806,16.215 22.686,17.923 20.566,19.631C20.369,19.791 20.241,19.841 20.014,19.657C17.298,17.456 14.574,15.263 11.844,13.078C11.787,13.03 11.717,12.999 11.707,12.885L28.941,12.885Z" fill="#000000"/>
</svg>
