<svg width="40" height="40" viewBox="0 0 40 40" fill="none" xmlns="http://www.w3.org/2000/svg" xmlns:xlink="http://www.w3.org/1999/xlink">
<path d="M20.256,-0.115C9.265,-0.079 0.466,8.895 0.551,20.081C0.634,31.177 9.583,40.037 20.554,39.883C31.38,39.731 40.024,30.812 40.001,19.798C39.977,8.785 31.086,-0.159 20.256,-0.115Z" fill="#FFFFFF"/>
<path d="M20.256,-0.115C31.086,-0.149 39.977,8.81 40.001,19.798C40.024,30.787 31.38,39.731 20.554,39.883C9.583,40.037 0.634,31.177 0.551,20.081C0.466,8.884 9.265,-0.09 20.256,-0.115ZM26.537,31.898C26.692,31.859 26.841,31.8 26.981,31.725C28.77,30.6 30.382,29.22 31.766,27.631C32.269,27.044 32.244,26.705 31.632,26.241C30.023,24.998 28.28,23.936 26.433,23.077C25.825,22.798 25.629,22.855 25.171,23.359C24.67,23.91 24.184,24.473 23.696,25.047C23.641,25.134 23.555,25.197 23.454,25.223C23.354,25.249 23.247,25.236 23.157,25.186C22.178,24.726 21.14,24.37 20.234,23.796C17.739,22.237 15.902,19.832 15.067,17.031C15.017,16.919 15.007,16.793 15.039,16.675C15.071,16.556 15.142,16.452 15.242,16.379C15.771,15.917 16.308,15.451 16.811,14.972C17.359,14.464 17.408,14.28 17.099,13.59C16.262,11.769 15.237,10.038 14.04,8.426C13.556,7.764 13.217,7.726 12.609,8.264C11.043,9.671 9.695,11.297 8.606,13.092C8.473,13.332 8.427,13.61 8.474,13.879C8.621,14.709 8.821,15.53 9.073,16.335C10.064,19.258 11.753,21.758 13.763,24.038C16.359,26.975 19.343,29.399 22.958,30.945C24.096,31.438 25.303,31.756 26.537,31.888L26.537,31.898ZM21.129,9.517C26.812,10.15 29.897,13.301 30.509,19.009L32.092,19.009C32.158,12.54 26.578,7.696 21.138,7.943L21.129,9.517ZM27.85,19.02C27.925,14.746 23.992,11.913 21.136,12.255L21.136,13.875C22.479,13.897 23.759,14.444 24.696,15.396C25.648,16.369 26.189,17.665 26.207,19.02L27.85,19.02Z" fill="#FFFFFF"/>
<path d="M26.537,31.888C25.304,31.749 24.1,31.424 22.966,30.924C19.342,29.378 16.358,26.954 13.77,24.017C11.752,21.737 10.064,19.237 9.081,16.314C8.828,15.509 8.628,14.688 8.482,13.858C8.435,13.589 8.481,13.311 8.614,13.071C9.702,11.276 11.051,9.65 12.617,8.243C13.225,7.705 13.564,7.743 14.048,8.405C15.245,10.017 16.27,11.748 17.106,13.569C17.416,14.259 17.366,14.442 16.819,14.951C16.305,15.43 15.778,15.896 15.25,16.358C15.15,16.431 15.079,16.535 15.047,16.653C15.015,16.772 15.025,16.898 15.075,17.01C15.91,19.811 17.747,22.216 20.242,23.775C21.148,24.349 22.186,24.705 23.165,25.165C23.255,25.214 23.362,25.228 23.462,25.202C23.563,25.176 23.649,25.113 23.704,25.026C24.192,24.46 24.678,23.897 25.179,23.338C25.637,22.834 25.833,22.777 26.441,23.055C28.287,23.915 30.031,24.977 31.64,26.22C32.252,26.684 32.279,27.023 31.774,27.61C30.39,29.199 28.778,30.579 26.989,31.704C26.846,31.784 26.694,31.845 26.537,31.888Z" fill="#2F383B"/>
<path d="M21.129,9.507L21.129,7.933C26.569,7.686 32.149,12.529 32.083,18.999L30.499,18.999C29.896,13.291 26.812,10.137 21.129,9.507Z" fill="#2F383B"/>
<path d="M27.85,19.01L26.206,19.01C26.188,17.655 25.647,16.359 24.695,15.386C23.758,14.433 22.478,13.887 21.135,13.865L21.135,12.245C23.992,11.909 27.924,14.736 27.85,19.01Z" fill="#2F383B"/>
</svg>
