<svg width="40" height="40" viewBox="0 0 40 40" fill="none" xmlns="http://www.w3.org/2000/svg" xmlns:xlink="http://www.w3.org/1999/xlink">
<path d="M18.49,-0.125L20.955,-0.125C21.614,-0.037 22.281,0.029 22.934,0.139C26.964,0.826 30.686,2.761 33.589,5.678C36.492,8.595 38.434,12.351 39.148,16.432C39.278,17.166 39.351,17.901 39.452,18.636L39.452,21.135C39.394,21.613 39.343,22.09 39.278,22.561C38.745,26.822 36.83,30.782 33.835,33.819C28.761,38.963 22.665,40.837 15.656,39.434C11.009,38.526 6.869,35.879 4.059,32.019C2.005,29.291 0.677,26.073 0.205,22.674C-0.268,19.276 0.13,15.811 1.361,12.614C2.591,9.417 4.613,6.594 7.231,4.419C9.849,2.243 12.975,0.787 16.309,0.19C17.041,0.088 17.773,-0.023 18.49,-0.125ZM21.39,16.476L21.39,15.006C21.39,13 21.39,12.97 23.383,12.97L24.934,12.97L24.934,9.031C24.893,9.027 24.852,9.027 24.811,9.031C23.361,9.031 21.955,8.965 20.534,9.09C19.723,9.125 18.943,9.418 18.304,9.927C17.666,10.436 17.201,11.136 16.975,11.927C16.78,12.623 16.668,13.341 16.642,14.065C16.591,14.866 16.642,15.675 16.642,16.527L14.417,16.527L14.417,20.643L16.657,20.643L16.657,32.195L21.419,32.195L21.419,20.606L24.622,20.606L25.028,16.52L21.39,16.476Z" fill="#FFFFFF"/>
<path d="M21.418,16.476L25.043,16.476L24.637,20.562L21.433,20.562L21.433,32.151L16.671,32.151L16.671,20.598L14.431,20.598L14.431,16.483L16.656,16.483C16.656,15.63 16.62,14.822 16.656,14.021C16.683,13.297 16.794,12.579 16.99,11.883C17.215,11.091 17.68,10.392 18.319,9.883C18.957,9.374 19.737,9.081 20.549,9.046C21.998,8.921 23.397,8.994 24.825,8.987C24.866,8.982 24.907,8.982 24.948,8.987L24.948,12.926L23.397,12.926C21.44,12.926 21.404,12.926 21.404,14.962L21.418,16.476Z" fill="#2F383B"/>
</svg>
