<svg width="42" height="42" viewBox="0 0 42 42" fill="none" xmlns="http://www.w3.org/2000/svg" xmlns:xlink="http://www.w3.org/1999/xlink">
<path d="M0.548,22.127L0.548,19.632C0.578,19.372 0.612,19.132 0.641,18.863C1.084,14.52 2.913,10.443 5.851,7.251C8.789,4.059 12.674,1.927 16.917,1.179C17.621,1.059 18.334,0.979 19.043,0.879L21.505,0.879C21.603,0.879 21.702,0.934 21.8,0.944C24.834,1.148 27.773,2.095 30.366,3.704C32.819,5.162 34.927,7.147 36.543,9.519C38.159,11.891 39.243,14.593 39.719,17.435C39.852,18.159 39.921,18.898 40.02,19.632L40.02,22.127C39.966,22.626 39.911,23.076 39.847,23.555C39.279,27.753 37.413,31.661 34.517,34.717C31.621,37.773 27.845,39.821 23.73,40.565C23.001,40.7 22.253,40.775 21.529,40.874L19.068,40.874C18.576,40.814 18.083,40.765 17.621,40.695C13.487,40.111 9.642,38.217 6.635,35.282C3.629,32.348 1.615,28.524 0.883,24.358C0.72,23.62 0.646,22.871 0.548,22.127ZM20.274,33.882C20.422,33.717 20.55,33.592 20.658,33.452C22.135,31.656 23.612,29.889 25.02,28.047C26.617,26.007 27.978,23.788 29.076,21.433C29.78,19.871 30.248,18.269 29.972,16.522C29.357,12.639 27.289,9.859 23.651,8.501C20.013,7.143 16.666,7.847 13.746,10.418C11.191,12.669 9.316,17.071 11.467,21.453C12.419,23.382 13.519,25.233 14.755,26.989C16.462,29.393 18.305,31.694 20.274,33.882Z" fill="#FFFFFF"/>
<path d="M20.24,33.747C18.269,31.561 16.426,29.259 14.721,26.854C13.484,25.099 12.385,23.248 11.432,21.319C9.266,16.937 11.157,12.534 13.712,10.283C16.631,7.713 19.998,7.019 23.617,8.367C27.235,9.714 29.322,12.504 29.938,16.388C30.213,18.135 29.746,19.742 29.042,21.299C27.944,23.654 26.583,25.873 24.985,27.912C23.582,29.754 22.086,31.521 20.624,33.318C20.52,33.458 20.392,33.588 20.24,33.747ZM16.794,18.095C16.787,18.837 16.997,19.565 17.399,20.187C17.8,20.808 18.375,21.294 19.049,21.585C19.724,21.875 20.468,21.956 21.187,21.817C21.907,21.678 22.57,21.326 23.092,20.805C23.614,20.284 23.972,19.617 24.121,18.89C24.269,18.163 24.201,17.407 23.926,16.719C23.65,16.03 23.18,15.44 22.574,15.023C21.967,14.606 21.253,14.381 20.52,14.376C19.54,14.371 18.598,14.759 17.9,15.456C17.202,16.152 16.804,17.101 16.794,18.095Z" fill="#000000"/>
<path d="M16.572,17.895C16.572,15.444 18.379,13.472 20.579,13.482C22.78,13.492 24.552,15.514 24.517,18.005C24.483,20.495 22.691,22.412 20.491,22.392C18.29,22.372 16.562,20.341 16.572,17.895Z" fill="#FFFFFF"/>
</svg>
