<svg width="42" height="40" viewBox="0 0 42 40" fill="none" xmlns="http://www.w3.org/2000/svg" xmlns:xlink="http://www.w3.org/1999/xlink">
<path d="M0.548,20.68L0.548,18.185C0.577,17.925 0.612,17.685 0.641,17.416C1.084,13.073 2.913,8.996 5.851,5.804C8.789,2.612 12.674,0.48 16.916,-0.268C17.62,-0.388 18.334,-0.468 19.043,-0.568L21.505,-0.568C21.603,-0.568 21.701,-0.513 21.8,-0.503C24.834,-0.299 27.773,0.648 30.366,2.257C32.819,3.715 34.927,5.7 36.543,8.072C38.159,10.444 39.243,13.146 39.719,15.988C39.852,16.712 39.921,17.451 40.02,18.185L40.02,20.68C39.965,21.179 39.911,21.629 39.847,22.108C39.279,26.306 37.412,30.214 34.517,33.27C31.621,36.326 27.845,38.374 23.73,39.118C23.001,39.253 22.253,39.328 21.529,39.427L19.068,39.427C18.575,39.367 18.083,39.318 17.62,39.248C13.487,38.664 9.642,36.77 6.635,33.835C3.628,30.901 1.615,27.077 0.883,22.911C0.72,22.173 0.646,21.424 0.548,20.68ZM20.274,32.435C20.422,32.27 20.549,32.145 20.658,32.005C22.135,30.209 23.612,28.442 25.019,26.6C26.617,24.56 27.978,22.341 29.076,19.986C29.78,18.424 30.248,16.822 29.972,15.075C29.357,11.192 27.289,8.412 23.651,7.054C20.013,5.696 16.665,6.4 13.746,8.971C11.191,11.222 9.316,15.624 11.467,20.006C12.419,21.935 13.519,23.786 14.755,25.542C16.462,27.946 18.304,30.247 20.274,32.435Z" fill="#FFFFFF"/>
<path d="M20.239,32.3C18.269,30.113 16.426,27.812 14.721,25.407C13.484,23.652 12.385,21.801 11.432,19.872C9.266,15.489 11.157,11.087 13.712,8.836C16.631,6.266 19.998,5.572 23.617,6.919C27.235,8.267 29.322,11.057 29.938,14.94C30.213,16.687 29.746,18.294 29.042,19.852C27.944,22.206 26.583,24.425 24.985,26.465C23.582,28.307 22.086,30.074 20.623,31.871C20.52,32.01 20.392,32.14 20.239,32.3ZM16.793,16.647C16.787,17.39 16.997,18.118 17.399,18.739C17.8,19.361 18.375,19.847 19.049,20.137C19.723,20.427 20.468,20.508 21.187,20.369C21.907,20.231 22.57,19.878 23.092,19.357C23.614,18.836 23.972,18.17 24.12,17.443C24.269,16.715 24.201,15.96 23.926,15.271C23.65,14.583 23.18,13.993 22.574,13.576C21.967,13.159 21.253,12.934 20.52,12.929C19.54,12.924 18.598,13.312 17.9,14.008C17.202,14.705 16.804,15.654 16.793,16.647Z" fill="#000000"/>
<path d="M16.572,16.448C16.572,13.997 18.379,12.025 20.579,12.035C22.78,12.045 24.552,14.067 24.517,16.558C24.483,19.048 22.691,20.965 20.49,20.945C18.29,20.925 16.562,18.893 16.572,16.448Z" fill="#FFFFFF"/>
</svg>
