<svg width="40" height="42" viewBox="0 0 40 42" fill="none" xmlns="http://www.w3.org/2000/svg" xmlns:xlink="http://www.w3.org/1999/xlink">
<path d="M20.336,40.427L18.178,40.427C17.619,40.364 17.057,40.314 16.499,40.232C13.72,39.854 11.056,38.866 8.692,37.337C8.586,37.258 8.462,37.208 8.332,37.19C8.202,37.171 8.069,37.187 7.946,37.233C5.693,37.978 3.434,38.701 1.177,39.436C1.054,39.476 0.928,39.514 0.753,39.567C1.541,37.189 2.296,34.887 3.068,32.59C3.173,32.281 3.165,32.05 2.965,31.769C1.327,29.413 0.231,26.715 -0.241,23.872C-0.382,23.044 -0.45,22.202 -0.551,21.366L-0.551,19.257C-0.527,19.118 -0.5,18.98 -0.48,18.842C-0.353,17.969 -0.28,17.082 -0.094,16.223C0.947,11.391 3.411,7.443 7.307,4.485C12.09,0.855 17.469,-0.345 23.325,0.895C28.044,1.893 31.881,4.398 34.816,8.264C37.982,12.44 39.301,17.194 38.806,22.428C38.405,26.652 36.792,30.387 34.019,33.579C30.962,37.1 27.146,39.291 22.582,40.112C21.837,40.251 21.085,40.325 20.336,40.427ZM25.538,31.699C26.178,31.575 26.738,31.534 27.251,31.356C30.041,30.387 30.988,29.022 31.069,26.411C31.081,25.995 30.926,25.72 30.556,25.542C29.098,24.839 27.65,24.115 26.186,23.422C25.409,23.056 24.967,23.197 24.458,23.892C24.072,24.414 23.701,24.941 23.305,25.457C22.716,26.221 22.282,26.329 21.398,25.964C18.177,24.633 15.766,22.359 13.954,19.39C13.512,18.667 13.534,18.453 14.099,17.806C14.456,17.397 14.829,17 15.161,16.572C15.474,16.17 15.766,15.731 15.54,15.181C14.865,13.526 14.174,11.874 13.466,10.231C13.378,10.026 13.169,9.781 12.973,9.733C11.938,9.471 10.856,9.414 9.992,10.124C8.062,11.711 7.46,13.848 7.83,16.276C8.091,17.976 8.88,19.466 9.834,20.873C11.365,23.137 13.095,25.218 15.158,27.009C17.453,29.003 20.117,30.269 22.986,31.124C23.843,31.378 24.731,31.52 25.538,31.699Z" fill="#FFFFFF"/>
<path d="M25.538,31.699C24.731,31.52 23.844,31.378 22.989,31.123C20.119,30.268 17.455,29.002 15.16,27.009C13.097,25.218 11.367,23.133 9.841,20.872C8.887,19.465 8.098,17.975 7.837,16.275C7.467,13.847 8.073,11.711 9.999,10.123C10.867,9.41 11.945,9.468 12.98,9.732C13.173,9.781 13.385,10.025 13.473,10.231C14.181,11.873 14.867,13.525 15.547,15.18C15.773,15.73 15.482,16.169 15.168,16.571C14.834,16.999 14.462,17.396 14.106,17.805C13.541,18.452 13.519,18.667 13.961,19.39C15.773,22.358 18.184,24.633 21.405,25.963C22.289,26.328 22.723,26.22 23.312,25.456C23.708,24.945 24.084,24.417 24.465,23.891C24.974,23.197 25.416,23.055 26.193,23.422C27.657,24.114 29.105,24.838 30.563,25.541C30.933,25.719 31.088,25.994 31.076,26.41C30.995,29.022 30.048,30.386 27.258,31.356C26.738,31.535 26.178,31.575 25.538,31.699Z" fill="#2F383B"/>
</svg>
