<svg width="40" height="42" viewBox="0 0 40 42" fill="none" xmlns="http://www.w3.org/2000/svg" xmlns:xlink="http://www.w3.org/1999/xlink">
<path d="M0.548,21.688L0.548,19.19C0.572,19.063 0.598,18.937 0.617,18.811C0.761,17.86 0.833,16.894 1.058,15.965C2.553,9.785 6.133,5.254 11.748,2.43C15.467,0.561 19.428,0.021 23.515,0.726C28.633,1.603 32.807,4.166 35.953,8.345C39.24,12.72 40.514,17.688 39.815,23.137C39.324,27.076 37.645,30.766 35.008,33.702C32.078,37.088 28.09,39.352 23.71,40.115C22.982,40.25 22.243,40.326 21.508,40.428L19.042,40.428C18.561,40.366 18.078,40.315 17.599,40.252C13.746,39.729 10.137,38.046 7.239,35.421C3.87,32.448 1.616,28.389 0.856,23.928C0.724,23.182 0.65,22.432 0.548,21.688ZM20.248,29.522C23.593,29.522 26.944,29.522 30.301,29.522C31.968,29.522 32.987,28.485 32.988,26.798L32.988,14.076C32.988,12.389 31.968,11.356 30.298,11.356L10.269,11.356C8.577,11.356 7.563,12.386 7.563,14.099C7.563,18.307 7.592,22.528 7.547,26.742C7.53,28.277 8.599,29.564 10.316,29.538C13.622,29.485 16.936,29.522 20.248,29.522Z" fill="#FFFFFF"/>
<path d="M20.248,29.522C16.936,29.522 13.622,29.485 10.31,29.537C8.599,29.564 7.53,28.277 7.542,26.742C7.587,22.534 7.556,18.313 7.558,14.099C7.558,12.385 8.571,11.356 10.264,11.356L30.293,11.356C31.962,11.356 32.982,12.389 32.983,14.076L32.983,26.798C32.983,28.485 31.962,29.52 30.296,29.522C26.948,29.524 23.599,29.524 20.248,29.522ZM9.605,14.469L9.605,26.704C9.605,27.375 9.696,27.466 10.364,27.466L30.163,27.466C30.855,27.466 30.945,27.382 30.945,26.688L30.945,14.469C30.699,14.663 30.531,14.797 30.365,14.932L21.046,22.428C20.49,22.875 20.064,22.875 19.519,22.439L13.067,17.246L9.605,14.469ZM28.941,13.441L11.707,13.441C11.717,13.555 11.786,13.587 11.844,13.634C14.571,15.824 17.294,18.017 20.014,20.213C20.241,20.398 20.36,20.347 20.566,20.187C22.683,18.476 24.803,16.768 26.927,15.065L28.941,13.441Z" fill="#FFFFFF"/>
<path d="M9.605,14.469L13.065,17.348L19.518,22.721C20.063,23.174 20.488,23.172 21.044,22.709C24.152,20.125 27.258,17.54 30.364,14.954L30.943,14.476L30.943,27.102C30.943,27.821 30.857,27.907 30.161,27.907C23.562,27.907 16.962,27.907 10.362,27.907C9.694,27.907 9.603,27.814 9.603,27.118L9.603,14.469L9.605,14.469Z" fill="#000000"/>
<path d="M28.941,13.438L26.927,15.061C24.806,16.768 22.685,18.476 20.566,20.184C20.369,20.343 20.241,20.394 20.014,20.21C17.298,18.009 14.574,15.815 11.844,13.63C11.786,13.583 11.717,13.551 11.707,13.438L28.941,13.438Z" fill="#000000"/>
</svg>
