<svg width="40" height="42" viewBox="0 0 40 42" fill="none" xmlns="http://www.w3.org/2000/svg" xmlns:xlink="http://www.w3.org/1999/xlink">
<path d="M18.49,0.427L20.955,0.427C21.614,0.516 22.281,0.582 22.934,0.692C26.964,1.379 30.686,3.314 33.589,6.231C36.492,9.148 38.434,12.904 39.148,16.985C39.278,17.719 39.351,18.454 39.452,19.189L39.452,21.688C39.394,22.165 39.343,22.643 39.278,23.114C38.745,27.374 36.83,31.335 33.835,34.372C28.761,39.516 22.665,41.39 15.656,39.987C11.009,39.079 6.869,36.432 4.059,32.571C2.005,29.844 0.677,26.626 0.205,23.227C-0.268,19.829 0.13,16.364 1.361,13.167C2.591,9.97 4.613,7.147 7.231,4.972C9.849,2.796 12.975,1.34 16.309,0.743C17.041,0.641 17.773,0.53 18.49,0.427ZM21.39,17.029L21.39,15.559C21.39,13.553 21.39,13.523 23.383,13.523L24.934,13.523L24.934,9.584C24.893,9.58 24.852,9.58 24.811,9.584C23.361,9.584 21.955,9.518 20.534,9.643C19.723,9.678 18.943,9.971 18.304,10.48C17.666,10.989 17.201,11.689 16.975,12.48C16.78,13.176 16.668,13.894 16.642,14.618C16.591,15.419 16.642,16.228 16.642,17.08L14.417,17.08L14.417,21.195L16.656,21.195L16.656,32.748L21.419,32.748L21.419,21.159L24.622,21.159L25.028,17.073L21.39,17.029Z" fill="#FFFFFF"/>
<path d="M21.418,17.029L25.043,17.029L24.637,21.115L21.433,21.115L21.433,32.704L16.671,32.704L16.671,21.151L14.431,21.151L14.431,17.036L16.656,17.036C16.656,16.184 16.62,15.375 16.656,14.574C16.682,13.85 16.794,13.132 16.99,12.436C17.215,11.645 17.68,10.945 18.319,10.436C18.957,9.927 19.737,9.634 20.549,9.599C21.998,9.474 23.397,9.548 24.825,9.54C24.866,9.536 24.907,9.536 24.948,9.54L24.948,13.479L23.397,13.479C21.44,13.479 21.404,13.479 21.404,15.515L21.418,17.029Z" fill="#2F383B"/>
</svg>
