<svg width="40" height="40" viewBox="0 0 40 40" fill="none" xmlns="http://www.w3.org/2000/svg" xmlns:xlink="http://www.w3.org/1999/xlink">
<path d="M20.336,39.874L18.178,39.874C17.618,39.811 17.057,39.761 16.499,39.679C13.72,39.301 11.056,38.313 8.692,36.784C8.586,36.705 8.462,36.655 8.332,36.637C8.202,36.618 8.069,36.634 7.946,36.68C5.693,37.425 3.434,38.148 1.177,38.883C1.054,38.923 0.928,38.961 0.752,39.014C1.541,36.636 2.296,34.334 3.068,32.037C3.173,31.728 3.165,31.497 2.965,31.216C1.327,28.86 0.231,26.162 -0.241,23.319C-0.382,22.491 -0.45,21.649 -0.551,20.813L-0.551,18.704C-0.527,18.565 -0.5,18.427 -0.48,18.289C-0.353,17.416 -0.28,16.529 -0.094,15.67C0.946,10.838 3.411,6.89 7.307,3.932C12.09,0.302 17.469,-0.898 23.325,0.342C28.043,1.34 31.881,3.845 34.815,7.711C37.982,11.887 39.3,16.641 38.805,21.875C38.405,26.099 36.792,29.834 34.019,33.026C30.961,36.547 27.146,38.738 22.582,39.559C21.837,39.698 21.084,39.772 20.336,39.874ZM25.538,31.146C26.177,31.022 26.738,30.981 27.251,30.803C30.041,29.834 30.987,28.469 31.069,25.858C31.081,25.442 30.926,25.167 30.556,24.989C29.098,24.286 27.65,23.562 26.186,22.869C25.409,22.503 24.966,22.644 24.458,23.339C24.072,23.861 23.7,24.388 23.305,24.904C22.716,25.668 22.282,25.776 21.398,25.411C18.177,24.08 15.766,21.806 13.954,18.837C13.512,18.114 13.534,17.9 14.099,17.253C14.456,16.844 14.829,16.447 15.161,16.019C15.474,15.617 15.766,15.178 15.54,14.628C14.865,12.973 14.174,11.321 13.466,9.678C13.378,9.473 13.169,9.229 12.973,9.18C11.938,8.918 10.856,8.861 9.992,9.571C8.062,11.158 7.46,13.295 7.83,15.723C8.091,17.423 8.88,18.913 9.833,20.32C11.365,22.584 13.095,24.665 15.158,26.456C17.453,28.45 20.117,29.716 22.986,30.571C23.843,30.825 24.731,30.967 25.538,31.146Z" fill="#FFFFFF"/>
<path d="M25.538,31.146C24.731,30.967 23.843,30.825 22.989,30.57C20.119,29.715 17.455,28.449 15.16,26.456C13.097,24.665 11.367,22.58 9.84,20.32C8.887,18.912 8.098,17.422 7.837,15.722C7.467,13.294 8.073,11.158 9.999,9.57C10.867,8.857 11.945,8.915 12.98,9.179C13.173,9.228 13.385,9.472 13.473,9.678C14.181,11.32 14.867,12.972 15.547,14.627C15.773,15.177 15.481,15.616 15.168,16.018C14.834,16.446 14.461,16.843 14.106,17.252C13.541,17.899 13.519,18.114 13.961,18.837C15.773,21.805 18.184,24.08 21.405,25.41C22.289,25.775 22.723,25.667 23.312,24.903C23.707,24.392 24.084,23.864 24.465,23.338C24.973,22.644 25.416,22.502 26.193,22.869C27.657,23.561 29.105,24.285 30.563,24.988C30.933,25.166 31.088,25.441 31.076,25.857C30.995,28.469 30.048,29.833 27.258,30.803C26.738,30.982 26.178,31.022 25.538,31.146Z" fill="#2F383B"/>
</svg>
