<svg width="40" height="42" viewBox="0 0 40 42" fill="none" xmlns="http://www.w3.org/2000/svg" xmlns:xlink="http://www.w3.org/1999/xlink">
<path d="M20.256,0.438C9.265,0.474 0.466,9.448 0.551,20.634C0.634,31.73 9.583,40.59 20.554,40.436C31.38,40.284 40.024,31.365 40.001,20.352C39.977,9.338 31.086,0.394 20.256,0.438Z" fill="#FFFFFF"/>
<path d="M20.256,0.438C31.086,0.404 39.977,9.363 40.001,20.352C40.024,31.34 31.38,40.284 20.554,40.436C9.583,40.59 0.634,31.73 0.551,20.634C0.466,9.437 9.265,0.463 20.256,0.438ZM26.537,32.452C26.692,32.412 26.841,32.354 26.981,32.279C28.77,31.153 30.382,29.773 31.766,28.184C32.269,27.598 32.244,27.258 31.632,26.794C30.023,25.551 28.28,24.49 26.433,23.63C25.825,23.351 25.629,23.408 25.171,23.912C24.67,24.463 24.184,25.026 23.696,25.6C23.641,25.687 23.555,25.75 23.454,25.776C23.354,25.802 23.247,25.789 23.157,25.739C22.178,25.279 21.14,24.923 20.234,24.349C17.739,22.79 15.902,20.385 15.067,17.584C15.017,17.472 15.007,17.346 15.039,17.228C15.071,17.109 15.142,17.005 15.242,16.932C15.771,16.47 16.308,16.004 16.811,15.525C17.359,15.017 17.408,14.833 17.099,14.143C16.262,12.322 15.237,10.591 14.04,8.979C13.556,8.317 13.217,8.279 12.609,8.817C11.043,10.224 9.695,11.851 8.606,13.646C8.473,13.885 8.427,14.163 8.474,14.432C8.621,15.263 8.821,16.083 9.073,16.888C10.064,19.812 11.753,22.311 13.763,24.592C16.359,27.528 19.343,29.952 22.958,31.498C24.096,31.991 25.303,32.309 26.537,32.441L26.537,32.452ZM21.129,10.07C26.812,10.703 29.897,13.854 30.509,19.563L32.092,19.563C32.158,13.093 26.578,8.249 21.138,8.496L21.129,10.07ZM27.85,19.573C27.925,15.299 23.992,12.466 21.136,12.808L21.136,14.428C22.479,14.45 23.759,14.997 24.696,15.949C25.648,16.922 26.189,18.219 26.207,19.573L27.85,19.573Z" fill="#FFFFFF"/>
<path d="M26.537,32.441C25.304,32.302 24.1,31.977 22.966,31.477C19.342,29.931 16.358,27.507 13.77,24.571C11.752,22.29 10.063,19.79 9.081,16.867C8.828,16.062 8.628,15.242 8.482,14.411C8.434,14.142 8.481,13.864 8.614,13.624C9.702,11.83 11.051,10.203 12.617,8.796C13.225,8.258 13.564,8.296 14.047,8.958C15.245,10.57 16.27,12.301 17.106,14.122C17.415,14.812 17.366,14.996 16.819,15.504C16.305,15.983 15.778,16.449 15.25,16.911C15.15,16.984 15.079,17.088 15.047,17.207C15.015,17.325 15.025,17.451 15.075,17.563C15.91,20.364 17.746,22.769 20.242,24.328C21.148,24.902 22.186,25.258 23.164,25.718C23.255,25.768 23.362,25.781 23.462,25.755C23.562,25.729 23.649,25.666 23.704,25.579C24.192,25.014 24.678,24.45 25.179,23.891C25.637,23.387 25.833,23.33 26.441,23.609C28.287,24.469 30.031,25.53 31.64,26.773C32.252,27.237 32.279,27.577 31.774,28.163C30.39,29.752 28.778,31.132 26.988,32.257C26.846,32.337 26.694,32.398 26.537,32.441Z" fill="#2F383B"/>
<path d="M21.129,10.059L21.129,8.486C26.569,8.239 32.149,13.082 32.083,19.552L30.499,19.552C29.896,13.844 26.812,10.69 21.129,10.059Z" fill="#2F383B"/>
<path d="M27.85,19.563L26.206,19.563C26.188,18.208 25.647,16.911 24.695,15.938C23.758,14.986 22.478,14.439 21.135,14.418L21.135,12.797C23.991,12.462 27.924,15.289 27.85,19.563Z" fill="#2F383B"/>
</svg>
