<svg width="40" height="42" viewBox="0 0 40 42" fill="none" xmlns="http://www.w3.org/2000/svg" xmlns:xlink="http://www.w3.org/1999/xlink">
<path d="M20.076,40.427C9.179,40.427 0.343,31.447 0.356,20.391C0.369,9.365 9.223,0.411 20.106,0.427C30.99,0.443 39.815,9.402 39.808,20.441C39.801,31.48 30.959,40.43 20.076,40.427ZM32.231,20.448L32.267,20.448C32.267,18.952 32.276,17.456 32.262,15.969C32.265,15.382 32.228,14.796 32.151,14.214C31.772,11.655 30.524,9.747 28.077,8.779C27.068,8.39 25.996,8.194 24.916,8.201C21.824,8.19 18.734,8.19 15.647,8.201C14.99,8.199 14.334,8.25 13.685,8.354C11.2,8.774 9.358,10.063 8.437,12.516C8.072,13.518 7.891,14.58 7.902,15.648C7.902,18.753 7.896,21.859 7.902,24.965C7.899,25.537 7.938,26.108 8.018,26.674C8.382,29.048 9.503,30.891 11.726,31.917C12.811,32.405 13.986,32.654 15.174,32.646C18.447,32.665 21.721,32.665 24.994,32.646C26.265,32.637 27.505,32.396 28.654,31.812C31.013,30.616 32.052,28.54 32.209,25.997C32.323,24.155 32.231,22.297 32.231,20.444L32.231,20.448Z" fill="#FFFFFF"/>
<path d="M32.231,20.445C32.231,22.297 32.323,24.155 32.209,26.001C32.052,28.543 31.013,30.619 28.654,31.816C27.505,32.399 26.265,32.641 24.994,32.649C21.721,32.672 18.447,32.672 15.174,32.649C13.987,32.657 12.811,32.409 11.726,31.921C9.504,30.895 8.382,29.052 8.018,26.678C7.938,26.112 7.899,25.54 7.903,24.968C7.892,21.862 7.896,18.757 7.903,15.652C7.891,14.583 8.072,13.521 8.437,12.518C9.358,10.061 11.2,8.778 13.686,8.356C14.333,8.252 14.987,8.2 15.643,8.2C18.734,8.185 21.824,8.185 24.911,8.2C25.992,8.193 27.064,8.389 28.073,8.778C30.52,9.746 31.762,11.655 32.147,14.214C32.225,14.794 32.263,15.379 32.261,15.965C32.276,17.461 32.266,18.956 32.266,20.444L32.231,20.445ZM20.092,10.508L20.092,10.468C19.775,10.468 19.459,10.468 19.143,10.468C17.54,10.503 15.933,10.475 14.336,10.597C12.491,10.738 11.123,11.675 10.513,13.502C10.285,14.196 10.164,14.921 10.154,15.652C10.115,18.731 10.134,21.811 10.14,24.891C10.142,25.304 10.166,25.717 10.213,26.127C10.478,28.485 12.035,30.08 14.356,30.251C15.874,30.358 17.403,30.37 18.927,30.366C21.227,30.359 23.531,30.366 25.825,30.241C27.672,30.134 29.04,29.166 29.647,27.341C29.879,26.621 30,25.868 30.005,25.111C30.044,22.045 30.025,18.978 30.019,15.911C30.018,15.472 29.991,15.032 29.937,14.596C29.69,12.584 28.439,11.154 26.503,10.706C25.977,10.587 25.441,10.523 24.902,10.516C23.298,10.498 21.696,10.513 20.092,10.513L20.092,10.508Z" fill="#FFFFFF"/>
<path d="M20.057,26.928C19.211,26.927 18.373,26.755 17.593,26.424C16.813,26.092 16.105,25.607 15.511,24.996C14.917,24.385 14.449,23.661 14.133,22.865C13.817,22.069 13.66,21.218 13.671,20.36C13.677,19.503 13.851,18.655 14.183,17.866C14.515,17.077 14.998,16.363 15.604,15.764C16.21,15.166 16.927,14.695 17.713,14.38C18.5,14.064 19.341,13.91 20.187,13.926C21.882,13.951 23.498,14.656 24.681,15.887C25.863,17.119 26.516,18.775 26.495,20.494C26.482,22.212 25.796,23.855 24.589,25.062C23.382,26.268 21.752,26.939 20.057,26.928ZM20.136,16.235C19.593,16.226 19.053,16.327 18.548,16.53C18.043,16.733 17.582,17.036 17.193,17.42C16.804,17.804 16.493,18.262 16.279,18.769C16.064,19.275 15.951,19.819 15.944,20.37C15.895,22.671 17.721,24.573 20.024,24.619C22.302,24.665 24.165,22.826 24.215,20.484C24.224,19.933 24.125,19.386 23.925,18.874C23.725,18.362 23.426,17.895 23.047,17.5C22.668,17.105 22.216,16.79 21.716,16.573C21.217,16.356 20.68,16.241 20.136,16.235Z" fill="#FFFFFF"/>
<path d="M26.555,15.252C26.387,15.257 26.22,15.229 26.064,15.168C25.907,15.107 25.764,15.016 25.643,14.899C25.522,14.781 25.424,14.641 25.357,14.485C25.29,14.33 25.254,14.162 25.251,13.992C25.246,13.82 25.276,13.648 25.338,13.487C25.4,13.326 25.494,13.179 25.613,13.055C25.732,12.932 25.874,12.833 26.031,12.766C26.188,12.699 26.357,12.664 26.527,12.664C26.865,12.663 27.19,12.796 27.431,13.037C27.672,13.277 27.809,13.604 27.813,13.946C27.817,14.289 27.686,14.618 27.45,14.863C27.214,15.108 26.892,15.248 26.555,15.252Z" fill="#FFFFFF"/>
</svg>
