<svg width="40" height="40" viewBox="0 0 40 40" fill="none" xmlns="http://www.w3.org/2000/svg" xmlns:xlink="http://www.w3.org/1999/xlink">
<path d="M20.076,39.874C9.179,39.874 0.343,30.894 0.356,19.838C0.369,8.811 9.223,-0.142 20.106,-0.126C30.99,-0.11 39.815,8.849 39.808,19.888C39.801,30.927 30.959,39.877 20.076,39.874ZM32.231,19.894L32.267,19.894C32.267,18.399 32.276,16.903 32.262,15.415C32.265,14.829 32.228,14.243 32.151,13.661C31.772,11.102 30.524,9.194 28.077,8.226C27.068,7.837 25.996,7.641 24.916,7.648C21.824,7.637 18.734,7.637 15.647,7.648C14.99,7.646 14.334,7.697 13.685,7.801C11.2,8.221 9.358,9.51 8.437,11.962C8.072,12.965 7.891,14.026 7.902,15.095C7.902,18.2 7.896,21.306 7.902,24.412C7.899,24.984 7.938,25.555 8.018,26.121C8.382,28.495 9.503,30.338 11.726,31.364C12.811,31.852 13.987,32.101 15.174,32.093C18.447,32.112 21.721,32.112 24.994,32.093C26.265,32.084 27.505,31.843 28.654,31.259C31.013,30.063 32.052,27.987 32.209,25.444C32.323,23.602 32.231,21.744 32.231,19.891L32.231,19.894Z" fill="#FFFFFF"/>
<path d="M32.231,19.892C32.231,21.744 32.323,23.602 32.209,25.448C32.052,27.99 31.013,30.066 28.654,31.263C27.505,31.846 26.265,32.088 24.994,32.096C21.721,32.119 18.447,32.119 15.174,32.096C13.987,32.104 12.811,31.856 11.726,31.368C9.504,30.342 8.382,28.499 8.019,26.125C7.938,25.559 7.899,24.987 7.903,24.415C7.892,21.31 7.896,18.204 7.903,15.099C7.891,14.03 8.072,12.968 8.437,11.965C9.358,9.508 11.2,8.225 13.686,7.803C14.333,7.699 14.987,7.647 15.643,7.647C18.735,7.632 21.824,7.632 24.911,7.647C25.992,7.64 27.064,7.836 28.073,8.225C30.52,9.193 31.762,11.102 32.147,13.661C32.225,14.241 32.263,14.826 32.261,15.412C32.276,16.908 32.266,18.403 32.266,19.891L32.231,19.892ZM20.092,9.955L20.092,9.915C19.776,9.915 19.459,9.915 19.143,9.915C17.54,9.95 15.933,9.922 14.336,10.044C12.492,10.185 11.123,11.122 10.513,12.949C10.285,13.643 10.164,14.368 10.154,15.099C10.115,18.178 10.134,21.258 10.14,24.339C10.142,24.751 10.166,25.164 10.213,25.574C10.478,27.932 12.035,29.527 14.356,29.698C15.874,29.805 17.403,29.817 18.927,29.813C21.227,29.806 23.531,29.813 25.825,29.688C27.672,29.581 29.04,28.613 29.647,26.788C29.879,26.068 30,25.315 30.005,24.558C30.044,21.492 30.025,18.425 30.019,15.358C30.018,14.919 29.991,14.479 29.937,14.043C29.69,12.031 28.439,10.601 26.503,10.153C25.977,10.034 25.441,9.97 24.902,9.963C23.298,9.945 21.696,9.96 20.092,9.96L20.092,9.955Z" fill="#FFFFFF"/>
<path d="M20.057,26.375C19.211,26.374 18.373,26.202 17.593,25.871C16.813,25.539 16.105,25.054 15.511,24.443C14.917,23.832 14.449,23.108 14.133,22.312C13.817,21.516 13.66,20.665 13.671,19.807C13.677,18.95 13.851,18.102 14.183,17.313C14.515,16.524 14.998,15.81 15.604,15.211C16.21,14.613 16.927,14.142 17.713,13.827C18.5,13.511 19.341,13.357 20.187,13.373C21.882,13.398 23.498,14.103 24.681,15.334C25.863,16.566 26.516,18.222 26.495,19.941C26.482,21.659 25.796,23.302 24.589,24.509C23.382,25.715 21.752,26.386 20.057,26.375ZM20.136,15.682C19.593,15.673 19.053,15.774 18.548,15.977C18.043,16.18 17.582,16.483 17.193,16.867C16.804,17.251 16.493,17.71 16.278,18.216C16.064,18.722 15.951,19.266 15.944,19.817C15.895,22.118 17.721,24.02 20.024,24.066C22.302,24.112 24.165,22.273 24.215,19.931C24.224,19.38 24.125,18.833 23.925,18.321C23.725,17.809 23.426,17.342 23.047,16.947C22.668,16.552 22.216,16.237 21.716,16.02C21.217,15.803 20.679,15.688 20.136,15.682Z" fill="#FFFFFF"/>
<path d="M26.555,14.699C26.387,14.704 26.22,14.676 26.064,14.615C25.907,14.554 25.764,14.463 25.643,14.346C25.522,14.228 25.424,14.088 25.357,13.932C25.29,13.777 25.254,13.609 25.251,13.439C25.246,13.267 25.276,13.095 25.338,12.934C25.4,12.773 25.494,12.626 25.613,12.502C25.732,12.379 25.874,12.28 26.031,12.213C26.188,12.146 26.357,12.111 26.527,12.111C26.865,12.11 27.19,12.243 27.431,12.484C27.672,12.724 27.809,13.051 27.813,13.393C27.817,13.736 27.686,14.065 27.45,14.31C27.214,14.555 26.892,14.695 26.555,14.699Z" fill="#FFFFFF"/>
</svg>
