<svg width="22" height="22" viewBox="0 0 22 22" fill="none" xmlns="http://www.w3.org/2000/svg" xmlns:xlink="http://www.w3.org/1999/xlink">
<path d="M10.092,0.512C11.696,0.512 13.301,0.497 14.904,0.521C15.443,0.528 15.979,0.592 16.505,0.711C18.441,1.159 19.692,2.589 19.939,4.601C19.993,5.038 20.02,5.477 20.021,5.916C20.027,8.983 20.046,12.05 20.007,15.116C20.002,15.874 19.881,16.626 19.649,17.347C19.042,19.171 17.674,20.143 15.827,20.246C13.533,20.376 11.229,20.364 8.929,20.371C7.405,20.371 5.873,20.371 4.358,20.256C2.039,20.085 0.481,18.49 0.215,16.132C0.168,15.722 0.144,15.309 0.142,14.897C0.136,11.816 0.117,8.736 0.156,5.657C0.166,4.926 0.287,4.201 0.515,3.507C1.126,1.68 2.494,0.743 4.338,0.602C5.935,0.48 7.542,0.508 9.145,0.473C9.461,0.466 9.778,0.473 10.094,0.473L10.092,0.512ZM10.057,16.928C11.752,16.939 13.382,16.268 14.589,15.061C15.797,13.855 16.482,12.212 16.495,10.494C16.516,8.775 15.863,7.118 14.681,5.887C13.498,4.656 11.882,3.95 10.187,3.926C9.341,3.91 8.5,4.064 7.713,4.38C6.927,4.695 6.21,5.166 5.604,5.764C4.998,6.362 4.515,7.077 4.183,7.866C3.851,8.655 3.677,9.503 3.671,10.36C3.66,11.218 3.817,12.069 4.133,12.865C4.449,13.661 4.917,14.385 5.511,14.996C6.105,15.607 6.813,16.092 7.593,16.424C8.373,16.755 9.211,16.927 10.057,16.928ZM16.555,5.252C16.892,5.248 17.214,5.108 17.45,4.863C17.686,4.618 17.817,4.289 17.813,3.946C17.809,3.604 17.672,3.277 17.431,3.037C17.19,2.796 16.865,2.662 16.527,2.664C16.357,2.664 16.188,2.699 16.031,2.766C15.874,2.833 15.732,2.931 15.613,3.055C15.494,3.179 15.4,3.326 15.338,3.487C15.276,3.648 15.246,3.819 15.251,3.992C15.254,4.162 15.29,4.33 15.357,4.485C15.424,4.641 15.522,4.781 15.643,4.899C15.764,5.016 15.907,5.107 16.064,5.168C16.22,5.229 16.387,5.257 16.555,5.252Z" fill="#2F383B"/>
<path d="M10.136,6.235C10.68,6.24 11.218,6.355 11.718,6.572C12.218,6.789 12.67,7.104 13.05,7.5C13.429,7.895 13.728,8.363 13.928,8.875C14.128,9.388 14.226,9.936 14.217,10.487C14.167,12.829 12.304,14.668 10.026,14.622C7.724,14.576 5.897,12.674 5.947,10.373C5.952,9.822 6.066,9.278 6.28,8.771C6.494,8.265 6.804,7.806 7.193,7.422C7.583,7.037 8.043,6.734 8.548,6.531C9.053,6.327 9.593,6.227 10.136,6.235Z" fill="#2F383B"/>
</svg>
