<svg width="136" height="178" viewBox="0 0 136 178" fill="none" xmlns="http://www.w3.org/2000/svg" xmlns:xlink="http://www.w3.org/1999/xlink">
<path d="M-0.833,124.731C-0.654,124.15 -0.475,123.57 -0.307,122.99C0.25,121.151 1.215,119.575 2.463,118.466C3.712,117.358 5.186,116.767 6.694,116.772C10.755,116.772 14.821,116.883 18.877,116.731C21.785,116.627 24.287,117.532 26.22,120.613L30.202,118.693C29.638,115.681 28.964,112.807 28.574,109.871C25.788,88.786 30.039,70.492 41.416,55.135C47.021,47.584 52.757,40.206 58.466,32.786C58.751,32.492 58.95,32.078 59.03,31.613C59.11,31.149 59.065,30.663 58.904,30.237C57.223,24.102 55.554,17.954 54.016,11.75C53.624,10.239 53.556,8.617 53.821,7.059C54.669,2.99 58.498,1.47 61.116,3.964C63.581,6.306 64.06,6.279 66.383,3.702C68.594,1.248 71.409,-0.067 74.305,0.003C77.2,0.073 79.977,1.523 82.117,4.082C83.876,6.154 84.903,6.154 86.752,4.241C87.561,3.328 88.579,2.796 89.644,2.727C90.71,2.658 91.762,3.057 92.636,3.861C94.432,5.498 95.111,8.261 94.337,11.246C92.71,17.532 91.061,23.812 89.349,30.057C89.166,30.529 89.113,31.07 89.201,31.587C89.288,32.103 89.51,32.564 89.828,32.89C94.485,38.907 99.083,44.993 103.713,51.038C104.54,52.13 105.098,53.318 104.767,54.907C104.651,55.486 104.423,56.015 104.105,56.444C103.787,56.872 103.389,57.185 102.951,57.351C102.513,57.518 102.05,57.532 101.606,57.393C101.163,57.254 100.754,56.966 100.421,56.558C99.267,55.211 98.214,53.719 97.124,52.289C93.189,47.128 89.275,41.926 85.298,36.841C84.769,36.206 84.087,35.834 83.371,35.791C77.19,35.708 71.01,35.708 64.829,35.791C64.154,35.826 63.51,36.174 63.012,36.772C57.013,44.544 51.024,52.33 45.103,60.213C36.47,71.729 32.462,85.629 33.109,101.739C33.289,106.592 34.041,111.379 35.338,115.929C38.05,115.017 40.605,113.953 43.239,113.318C50.313,111.591 57.102,112.979 63.586,116.993C69.639,120.744 75.701,124.551 81.706,128.351C86.225,131.204 88.227,135.722 87.937,142.306C87.937,142.686 87.937,143.066 87.937,143.977C89.481,142.478 90.845,141.338 92.046,139.957C98.869,132.072 105.664,124.148 112.431,116.185C112.863,115.628 113.18,114.936 113.352,114.175C115.825,103.717 115.805,92.52 113.294,82.078C113.205,81.691 113.1,81.311 113.015,80.917C112.557,78.789 113.226,76.973 114.706,76.323C115.042,76.17 115.399,76.11 115.754,76.148C116.109,76.185 116.454,76.319 116.768,76.54C117.081,76.762 117.356,77.066 117.575,77.434C117.794,77.802 117.953,78.226 118.04,78.679C118.805,82.052 119.439,85.474 119.942,88.931C120.736,95.152 120.75,101.502 119.984,107.729C121.037,107.363 122.028,106.914 123.028,106.7C125.151,106.224 127.335,106.65 129.26,107.917C131.185,109.183 132.751,111.223 133.73,113.739C134.709,116.256 135.049,119.116 134.7,121.904C134.352,124.692 133.333,127.26 131.793,129.235C125.848,136.908 119.866,144.535 113.847,152.116C109.802,157.2 105.857,162.478 101.501,167.059C95.643,173.235 88.743,176.523 81.253,177.58C80.91,177.66 80.572,177.773 80.242,177.919L5.261,177.919C3.797,177.402 2.463,176.389 1.393,174.981C0.323,173.573 -0.445,171.819 -0.833,169.898L-0.833,124.731ZM27.774,170.983L75.886,170.983C86.257,170.983 95.169,166.271 102.596,156.737C108.496,149.138 114.432,141.649 120.353,134.105C122.886,130.872 125.446,127.687 127.927,124.392C130.561,120.89 129.655,115.314 126.215,113.85C124.229,113 122.528,113.781 120.99,115.591C112.799,125.193 104.566,134.741 96.365,144.337C93.61,147.563 90.624,150.285 87.121,151.936C82.185,154.23 77.239,155.128 72.156,152.516C69.744,151.28 67.221,150.444 64.75,149.38C59.847,147.307 54.937,145.29 50.039,143.204C49.433,143.002 48.901,142.527 48.535,141.863C48.169,141.199 47.993,140.387 48.037,139.57C48.079,138.782 48.326,138.037 48.736,137.459C49.146,136.88 49.695,136.504 50.292,136.392C50.948,136.361 51.603,136.5 52.219,136.8C60.189,140.095 68.153,143.439 76.128,146.72C78.851,147.846 81.395,146.299 82.338,143.086C83.281,139.874 82.233,136.516 79.647,134.886C73.257,130.845 66.894,126.741 60.442,122.879C54.827,119.515 48.854,118.513 42.886,120.613C38.145,122.278 33.568,124.758 28.896,126.831C27.963,127.238 27.747,127.86 27.753,129.055C27.784,141.269 27.753,153.484 27.753,165.67L27.774,170.983ZM22.506,147.307C22.506,140.703 22.506,134.103 22.506,127.508C22.506,124.827 21.648,123.729 19.588,123.722C15.525,123.722 11.464,123.722 7.405,123.722C5.351,123.722 4.492,124.827 4.492,127.508C4.492,140.703 4.492,153.9 4.492,167.1C4.492,169.863 5.335,170.976 7.479,170.983L19.393,170.983C21.716,170.983 22.512,169.946 22.512,166.927C22.497,160.364 22.489,153.813 22.485,147.273L22.506,147.307ZM59.52,11.28C61.042,16.994 62.454,22.396 63.955,27.75C64.107,28.02 64.305,28.24 64.532,28.395C64.759,28.549 65.011,28.633 65.267,28.641C71.182,28.696 77.097,28.641 83.012,28.703C83.353,28.764 83.698,28.648 83.975,28.381C84.252,28.115 84.439,27.717 84.498,27.273C85.746,22.403 87.052,17.56 88.327,12.703C88.422,12.262 88.499,11.815 88.559,11.363C84.703,13.567 81.432,12.821 78.424,9.194C77.277,7.745 75.75,6.928 74.157,6.91C72.564,6.892 71.026,7.674 69.86,9.097C66.799,12.779 63.507,13.553 59.499,11.246L59.52,11.28Z" fill="#50AC97"/>
<path d="M74.386,70.108C74.41,72.859 73.548,74.219 72.166,74.312C70.784,74.405 69.799,73.256 69.653,71.306C69.496,69.443 68.706,68.419 67.385,67.947C66.772,67.726 66.124,67.736 65.515,67.977C64.907,68.218 64.362,68.678 63.944,69.307C63.737,69.609 63.583,69.966 63.491,70.354C63.399,70.742 63.371,71.151 63.41,71.554C63.449,71.957 63.554,72.344 63.717,72.689C63.88,73.034 64.098,73.329 64.356,73.554C65.12,74.177 65.99,74.54 66.888,74.61C70.543,74.889 73.624,78.131 74.315,82.602C74.983,86.949 73.113,91.184 69.691,93.258C69.318,93.527 69.038,93.971 68.905,94.5C68.536,96.152 67.65,97.152 66.434,97.108C65.217,97.065 64.493,96.077 64.129,94.45C63.948,93.878 63.61,93.415 63.182,93.153C60.479,91.42 58.794,88.768 58.624,84.72C58.538,82.757 59.409,81.366 60.725,81.205C61.052,81.153 61.384,81.191 61.7,81.317C62.015,81.443 62.306,81.654 62.556,81.936C62.806,82.218 63.007,82.566 63.149,82.957C63.29,83.347 63.367,83.772 63.376,84.204C63.406,84.988 63.632,85.736 64.019,86.334C64.405,86.933 64.931,87.347 65.516,87.514C66.121,87.791 66.776,87.82 67.395,87.599C68.014,87.377 68.566,86.914 68.981,86.272C69.231,85.932 69.415,85.519 69.517,85.066C69.619,84.613 69.636,84.134 69.567,83.671C69.497,83.207 69.344,82.773 69.119,82.404C68.894,82.035 68.605,81.743 68.275,81.553C67.563,81.117 66.789,80.88 66.003,80.857C62.524,80.615 59.376,77.274 58.718,73.027C58.032,68.58 59.84,64.333 63.215,62.29C63.634,62.018 63.956,61.544 64.115,60.967C64.47,59.371 65.269,58.39 66.453,58.365C67.012,58.319 67.565,58.548 68.002,59.007C68.44,59.466 68.731,60.123 68.82,60.849C68.919,61.762 69.265,62.017 69.795,62.333C72.578,64.022 74.145,66.792 74.386,70.108Z" fill="#50AC97"/>
<path d="M96.491,58.899C96.498,58.485 96.568,58.077 96.698,57.7C96.828,57.323 97.015,56.985 97.248,56.705C97.481,56.426 97.755,56.212 98.052,56.075C98.35,55.939 98.666,55.884 98.981,55.912C99.609,55.946 100.201,56.306 100.626,56.912C101.052,57.518 101.276,58.321 101.251,59.144C101.225,59.968 100.951,60.744 100.489,61.303C100.027,61.861 99.415,62.156 98.787,62.122C98.473,62.116 98.163,62.027 97.876,61.86C97.589,61.693 97.331,61.452 97.117,61.151C96.902,60.85 96.736,60.496 96.629,60.109C96.521,59.722 96.475,59.31 96.491,58.899Z" fill="#50AC97"/>
</svg>
