<svg width="136" height="178" viewBox="0 0 136 178" fill="none" xmlns="http://www.w3.org/2000/svg" xmlns:xlink="http://www.w3.org/1999/xlink">
<path d="M19.912,177.405C19.076,176.984 18.259,176.507 17.465,175.976C14.654,173.852 13.423,170.608 13.423,166.56C13.423,162.807 13.46,159.055 13.39,155.307C13.366,154.411 13.136,153.543 12.728,152.808C9.355,147.182 7.584,140.931 7.728,133.837C7.812,129.164 7.823,124.486 7.728,119.813C7.595,113.603 8.378,107.75 11.685,102.304C10.425,102.304 9.458,102.304 8.492,102.304C7.254,102.304 6.015,102.337 4.781,102.249C2.058,102.054 -0.363,99.422 -0.69,96.044C-0.881,93.984 -0.881,91.903 -0.69,89.844C-0.411,86.79 1.808,83.879 4.2,83.634C6.619,83.37 9.053,83.394 11.468,83.708C14.198,84.088 15.841,85.642 18.784,89.571C19.008,89.029 19.221,88.534 19.416,88.03C22.392,80.247 25.294,72.428 28.355,64.691C30.736,58.634 34.84,55.997 40.087,55.979C48.108,55.955 56.133,55.979 64.154,55.979L65.932,55.979C62.504,42.162 63.75,29.345 70.312,17.63C75.03,9.204 81.489,3.749 89.418,1.236C105.218,-3.775 121.653,6.84 128.123,25.972C134.851,45.869 128.553,69.887 111.486,80.243C112.742,83.403 113.995,86.563 115.333,89.932L116.09,88.766C118.019,85.814 120.473,84.083 123.523,83.847C125.165,83.722 126.83,83.708 128.465,83.718C129.107,83.722 129.745,83.842 130.361,84.074C133.822,85.402 135.409,89.922 134.645,96.16C134.171,100 131.639,102.573 128.303,102.582C126.245,102.582 124.188,102.582 121.987,102.582C122.072,102.873 122.175,103.154 122.296,103.424C124.541,107.44 125.86,111.896 125.918,116.805C125.992,123.612 125.992,130.423 125.849,137.229C125.724,143.073 123.854,148.153 121.039,152.748C120.594,153.509 120.339,154.419 120.304,155.362C120.223,159.064 120.282,162.766 120.267,166.439C120.267,171.885 118.188,175.407 114.043,177.119C113.924,177.194 113.815,177.292 113.72,177.41L101.595,177.41C101.501,177.291 101.393,177.191 101.275,177.114C97.057,175.356 95.062,171.899 95.047,166.291C95.047,164.875 95.047,163.46 95.047,161.984L38.595,161.984C38.595,163.834 38.647,165.611 38.595,167.379C38.467,171.08 37.159,174.005 34.631,175.948C33.791,176.51 32.922,176.999 32.029,177.41L19.912,177.405ZM67.181,103.47C50.816,103.47 34.452,103.458 18.089,103.433C17.549,103.392 17.009,103.523 16.52,103.815C16.031,104.107 15.609,104.55 15.293,105.104C13.07,108.602 11.88,112.964 11.924,117.444C11.924,123.043 11.876,128.641 11.946,134.24C11.978,136.139 12.156,138.029 12.475,139.885C13.746,147.487 19.195,156.644 28.351,156.042C32.467,155.769 36.604,155.996 40.726,155.996C62.549,155.996 84.37,155.996 106.188,155.996C109.259,155.996 112.066,155.149 114.609,152.933C120.084,148.14 121.899,141.06 122.167,133.167C122.343,127.984 122.211,122.783 122.196,117.587C122.257,112.987 121.013,108.51 118.688,104.96C118.398,104.458 118.013,104.054 117.569,103.785C117.124,103.516 116.634,103.39 116.141,103.419C99.825,103.478 83.505,103.495 67.181,103.47ZM68.769,41.866C68.736,61.799 81.573,78.017 97.472,78.133C113.272,78.244 126.389,61.809 126.381,41.875C126.374,21.942 113.349,5.678 97.435,5.586C81.665,5.493 68.809,21.762 68.776,41.866L68.769,41.866ZM107.253,81.871C101.982,84.005 96.362,84.384 90.939,82.973C81.107,80.443 73.636,73.715 68.526,62.79C68.381,62.497 68.188,62.248 67.96,62.058C67.732,61.868 67.474,61.742 67.203,61.688C57.716,61.637 48.226,61.582 38.739,61.716C35.829,61.758 33.65,63.761 32.283,67.033C31.916,67.898 31.633,68.814 31.295,69.693C27.679,79.114 24.059,88.54 20.433,97.973L113.477,97.973L107.253,81.871ZM34.322,161.428C28.605,161.28 22.932,162.247 17.692,158.014C17.692,161.192 17.67,163.95 17.692,166.703C17.722,169.664 19.258,171.751 21.62,171.834C24.56,171.941 27.499,171.932 30.438,171.834C32.672,171.77 34.216,169.803 34.322,167.009C34.377,165.236 34.322,163.46 34.322,161.428ZM116.2,158.314C110.975,162.567 105.243,161.488 99.6,161.701C99.6,163.598 99.548,165.259 99.6,166.916C99.706,169.831 101.209,171.765 103.524,171.839C106.463,171.932 109.381,171.922 112.305,171.839C114.304,171.784 116.049,170.011 116.152,167.753C116.303,164.741 116.2,161.706 116.2,158.314ZM10.057,96.719C11.615,96.719 13.177,96.752 14.735,96.719C15.932,96.687 16.443,95.479 15.87,94.151C14.158,90.186 11.498,88.678 7.937,88.668C3.201,88.668 3.616,89.571 3.631,94.392C3.631,95.97 4.307,96.706 5.519,96.706C7.03,96.729 8.543,96.715 10.057,96.719ZM123.633,96.719C125.143,96.719 126.653,96.719 128.163,96.719C129.743,96.719 130.261,96.021 130.287,93.999C130.287,93.022 130.287,92.042 130.287,91.065C130.287,89.58 129.626,88.835 128.513,88.752C127.601,88.678 126.675,88.793 125.768,88.719C122.277,88.423 119.812,90.376 118.122,94.119C117.46,95.586 117.901,96.687 119.246,96.719C120.708,96.747 122.171,96.719 123.633,96.719Z" fill="#50AC97"/>
<path d="M102.546,132.033C99.607,132.033 96.667,132.172 93.765,131.982C91.652,131.848 90.642,130.131 90.667,127.443C90.722,122.103 93.339,118.078 97.586,116.875C101.33,115.815 105.093,114.848 108.833,113.765C112.875,112.595 116.079,115.945 115.66,120.706C115.505,122.474 115.66,124.283 115.63,126.069C115.594,129.557 114.208,131.732 111.467,131.954C108.506,132.19 105.522,132.005 102.55,132.005L102.546,132.033ZM95.337,126.878L98.192,126.878C102.124,126.878 106.055,126.851 109.987,126.8C110.571,126.8 111.372,127.027 111.368,125.731C111.368,123.834 111.416,121.928 111.302,120.04C111.28,119.651 110.567,118.948 110.281,119.022C106.173,120.077 102.072,121.183 97.994,122.404C96.414,122.876 95.473,124.616 95.337,126.878Z" fill="#50AC97"/>
<path d="M32.11,132.806C28.781,132.551 25.43,132.523 22.135,131.968C19.324,131.505 18.299,129.571 18.284,125.953C18.284,123.991 18.258,122.029 18.284,120.072C18.35,115.806 20.97,112.882 24.299,113.673C28.605,114.7 32.9,115.857 37.137,117.259C40.844,118.49 43.383,123.302 43.236,128.193C43.17,130.608 42.134,132.176 40.072,132.324C37.427,132.51 34.767,132.366 32.114,132.366L32.11,132.806ZM38.919,126.643C38.419,123.977 37.412,122.515 35.612,122.015C31.746,120.905 27.855,119.924 23.99,118.804C22.796,118.462 22.52,119.073 22.52,120.373C22.581,121.868 22.581,123.366 22.52,124.861C22.421,126.369 22.833,126.878 24.045,126.86C28.524,126.791 33.003,126.86 37.486,126.823C37.927,126.809 38.367,126.712 38.919,126.643Z" fill="#50AC97"/>
<path d="M67.097,129.682C71.677,129.682 76.259,129.682 80.842,129.682C81.344,129.673 81.846,129.732 82.338,129.858C82.795,129.969 83.206,130.282 83.497,130.741C83.787,131.2 83.938,131.775 83.921,132.361C83.977,132.978 83.854,133.598 83.574,134.109C83.295,134.619 82.878,134.985 82.4,135.138C81.823,135.318 81.228,135.394 80.633,135.364C71.518,135.364 62.401,135.364 53.281,135.364C51.014,135.364 49.975,134.499 49.975,132.588C49.975,130.677 51.114,129.678 53.355,129.678L67.097,129.682Z" fill="#50AC97"/>
<path d="M66.891,146.64C62.081,146.64 57.272,146.64 52.458,146.64C50.441,146.64 49.247,144.359 50.36,142.527C50.653,142.116 51.007,141.782 51.403,141.544C51.798,141.306 52.227,141.168 52.664,141.139C57.154,141.005 61.644,141.074 66.134,141.074C71.219,141.074 76.305,141.014 81.386,141.139C81.815,141.184 82.232,141.339 82.611,141.595C82.991,141.851 83.324,142.203 83.591,142.629C83.932,143.267 83.818,144.803 83.411,145.433C82.955,146.136 81.941,146.585 81.169,146.603C76.422,146.691 71.657,146.64 66.891,146.64Z" fill="#50AC97"/>
<path d="M99.585,23.284C99.585,28.536 99.585,33.612 99.614,38.683C99.655,38.937 99.743,39.174 99.87,39.377C99.998,39.58 100.162,39.741 100.349,39.849C105.548,42.209 108.366,46.789 108.374,52.966C108.381,59.144 105.376,63.928 100.176,66.13L99.588,66.362C99.588,67.25 99.588,68.213 99.588,69.175C99.552,71.442 98.81,72.65 97.435,72.701C96.061,72.752 95.121,71.368 95.091,69.18C95.091,68.254 95.091,67.329 95.091,66.343C92.726,65.737 90.58,64.183 88.974,61.915C87.403,59.628 86.47,56.757 86.317,53.739C86.177,51.75 86.868,50.473 88.132,50.264C89.602,50.019 90.631,51.005 90.77,53.124C90.983,56.335 92.13,58.676 94.444,60.064C94.628,60.15 94.818,60.215 95.01,60.259C95.04,59.893 95.08,59.62 95.08,59.333C95.08,54.318 95.08,49.297 95.08,44.24C94.224,43.851 93.394,43.555 92.618,43.116C90.688,42.017 89.057,40.225 87.931,37.965C86.805,35.705 86.233,33.077 86.288,30.41C86.354,27.652 87.096,24.987 88.412,22.781C89.727,20.574 91.552,18.934 93.636,18.083C94.845,17.579 95.231,16.89 95.084,15.4C95.02,14.655 95.057,13.903 95.194,13.174C95.433,11.814 96.171,11.143 97.277,11.143C97.763,11.108 98.243,11.288 98.635,11.652C99.026,12.017 99.304,12.542 99.419,13.137C99.482,13.293 99.511,13.467 99.504,13.641C98.975,16.811 100.511,17.713 102.51,18.861C106.217,20.984 108.047,25.047 108.319,30.174C108.425,32.228 107.661,33.496 106.294,33.607C104.982,33.709 103.965,32.501 103.876,30.549C103.74,27.55 102.701,25.278 100.658,23.733C100.499,23.617 100.333,23.518 100.162,23.437C99.972,23.373 99.779,23.322 99.585,23.284ZM95.007,23.326C93.737,23.879 92.643,24.932 91.885,26.328C91.127,27.724 90.745,29.39 90.796,31.081C90.873,34.32 92.729,37.6 95.007,38.419L95.007,23.326ZM99.691,45.498L99.691,60.411C102.344,59.315 103.968,56.141 103.858,52.439C103.755,49.071 102.058,46.193 99.691,45.498Z" fill="#50AC97"/>
</svg>
