<svg width="42" height="42" viewBox="0 0 42 42" fill="none" xmlns="http://www.w3.org/2000/svg" xmlns:xlink="http://www.w3.org/1999/xlink">
<path d="M21.863,40.427L19.397,40.427C19.314,40.398 19.229,40.376 19.142,40.362C17.475,40.258 15.832,39.914 14.26,39.339C7.096,36.648 2.747,31.505 1.212,23.91C1.063,23.179 1.007,22.422 0.904,21.678L0.904,19.174C0.927,19.061 0.952,18.949 0.973,18.835C1.198,17.558 1.32,16.251 1.661,15.007C5.108,2.444 19.346,-3.434 30.517,3.142C35.782,6.241 38.941,10.932 40.059,17.019C40.19,17.733 40.258,18.457 40.356,19.177L40.356,21.601C40.334,21.726 40.308,21.85 40.29,21.976C40.188,22.761 40.116,23.554 39.968,24.33C38.427,32.382 32.006,38.743 24.027,40.119C23.308,40.244 22.582,40.326 21.863,40.427ZM17.625,16.92L17.625,30.939L21.873,30.939L21.873,30.462C21.873,28.271 21.867,26.089 21.873,23.903C21.873,23.12 21.937,22.337 22.291,21.622C22.754,20.683 23.663,20.265 24.905,20.426C25.772,20.53 26.362,21.118 26.549,22.135C26.646,22.659 26.696,23.191 26.699,23.724C26.715,25.988 26.707,28.254 26.708,30.518L26.708,30.935L30.992,30.935C31,30.807 31.012,30.706 31.012,30.603C31.012,28.099 31.039,25.605 30.996,23.106C30.984,22.106 30.883,21.108 30.696,20.125C30.375,18.48 29.472,17.256 27.803,16.816C27.108,16.633 26.392,16.549 25.675,16.565C24.068,16.605 22.749,17.264 21.855,18.674C21.805,18.726 21.751,18.773 21.692,18.814L21.692,16.922L17.625,16.92ZM14.869,30.937L14.869,16.933L10.618,16.933L10.618,30.937L14.869,30.937ZM12.725,14.973C13.22,14.973 13.704,14.824 14.115,14.545C14.526,14.265 14.846,13.868 15.035,13.404C15.224,12.939 15.272,12.428 15.175,11.936C15.078,11.443 14.838,10.991 14.488,10.637C14.137,10.282 13.691,10.042 13.205,9.945C12.72,9.849 12.217,9.901 11.761,10.095C11.304,10.289 10.915,10.616 10.642,11.035C10.369,11.454 10.224,11.946 10.227,12.448C10.231,13.119 10.496,13.761 10.964,14.234C11.432,14.708 12.065,14.974 12.725,14.975L12.725,14.973Z" fill="#FFFFFF"/>
</svg>
