<svg width="42" height="40" viewBox="0 0 42 40" fill="none" xmlns="http://www.w3.org/2000/svg" xmlns:xlink="http://www.w3.org/1999/xlink">
<path d="M21.863,39.874L19.397,39.874C19.314,39.845 19.229,39.823 19.142,39.809C17.475,39.705 15.832,39.361 14.26,38.786C7.096,36.095 2.747,30.952 1.212,23.357C1.063,22.626 1.007,21.869 0.904,21.125L0.904,18.621C0.927,18.508 0.952,18.396 0.973,18.282C1.198,17.005 1.32,15.698 1.661,14.454C5.108,1.891 19.346,-3.987 30.517,2.589C35.782,5.688 38.942,10.379 40.059,16.466C40.19,17.18 40.259,17.904 40.356,18.624L40.356,21.048C40.335,21.173 40.308,21.297 40.29,21.423C40.188,22.208 40.116,23.001 39.968,23.777C38.427,31.829 32.007,38.19 24.027,39.566C23.309,39.691 22.582,39.773 21.863,39.874ZM17.625,16.367L17.625,30.386L21.873,30.386L21.873,29.909C21.873,27.718 21.867,25.536 21.873,23.35C21.873,22.567 21.937,21.784 22.292,21.069C22.754,20.13 23.663,19.712 24.905,19.873C25.772,19.977 26.362,20.565 26.549,21.582C26.646,22.106 26.696,22.638 26.699,23.171C26.716,25.435 26.707,27.701 26.708,29.965L26.708,30.382L30.993,30.382C31,30.254 31.012,30.153 31.012,30.05C31.012,27.546 31.039,25.052 30.997,22.553C30.984,21.553 30.883,20.555 30.697,19.573C30.375,17.927 29.472,16.703 27.804,16.263C27.109,16.08 26.392,15.996 25.675,16.012C24.068,16.052 22.749,16.711 21.855,18.121C21.806,18.173 21.751,18.22 21.693,18.261L21.693,16.369L17.625,16.367ZM14.87,30.384L14.87,16.38L10.618,16.38L10.618,30.384L14.87,30.384ZM12.725,14.42C13.22,14.42 13.704,14.271 14.115,13.992C14.526,13.712 14.846,13.315 15.035,12.851C15.224,12.386 15.272,11.876 15.175,11.383C15.078,10.89 14.838,10.438 14.488,10.084C14.137,9.729 13.691,9.489 13.205,9.392C12.72,9.296 12.217,9.348 11.761,9.542C11.304,9.736 10.915,10.063 10.642,10.482C10.369,10.901 10.224,11.393 10.227,11.895C10.231,12.566 10.496,13.208 10.964,13.681C11.432,14.155 12.065,14.421 12.725,14.422L12.725,14.42Z" fill="#FFFFFF"/>
</svg>
